<svg xmlns="http://www.w3.org/2000/svg" viewBox="0 0 1672 941" role="img" aria-labelledby="title desc">
<title id="title">Fore! Employee Announcements</title>
<desc id="desc">Fore! Employee Announcements logo.</desc>

<path d="M 1247 733 L 1246 734 L 1245 734 L 1243 736 L 1243 737 L 1242 738 L 1242 743 L 1243 744 L 1243 745 L 1244 746 L 1245 746 L 1246 747 L 1247 747 L 1248 748 L 1250 748 L 1251 749 L 1254 749 L 1258 753 L 1258 755 L 1254 759 L 1249 759 L 1248 758 L 1247 758 L 1244 755 L 1244 754 L 1243 755 L 1242 755 L 1241 756 L 1241 757 L 1244 760 L 1245 760 L 1246 761 L 1248 761 L 1249 762 L 1254 762 L 1255 761 L 1257 761 L 1260 758 L 1260 757 L 1261 756 L 1261 752 L 1260 751 L 1260 750 L 1258 748 L 1257 748 L 1256 747 L 1254 747 L 1253 746 L 1251 746 L 1250 745 L 1249 745 L 1248 744 L 1247 744 L 1245 742 L 1245 739 L 1248 736 L 1254 736 L 1257 739 L 1257 740 L 1258 739 L 1259 739 L 1260 738 L 1258 736 L 1258 735 L 1257 735 L 1256 734 L 1255 734 L 1254 733 Z M 1212 733 L 1212 736 L 1219 736 L 1221 738 L 1221 744 L 1220 745 L 1220 757 L 1221 758 L 1221 761 L 1223 761 L 1223 755 L 1224 754 L 1224 747 L 1223 746 L 1223 738 L 1225 736 L 1232 736 L 1232 733 Z M 1180 733 L 1180 761 L 1183 761 L 1183 742 L 1184 741 L 1186 743 L 1186 744 L 1188 746 L 1188 747 L 1190 749 L 1190 750 L 1192 752 L 1192 753 L 1194 755 L 1194 756 L 1197 759 L 1197 760 L 1198 761 L 1201 761 L 1201 733 L 1198 733 L 1198 752 L 1197 753 L 1196 753 L 1195 752 L 1195 751 L 1193 749 L 1193 748 L 1190 745 L 1190 744 L 1189 743 L 1189 742 L 1187 740 L 1187 739 L 1185 737 L 1185 736 L 1182 733 Z M 1151 733 L 1151 761 L 1167 761 L 1167 759 L 1155 759 L 1154 758 L 1154 750 L 1155 749 L 1165 749 L 1166 748 L 1166 746 L 1155 746 L 1154 745 L 1154 737 L 1155 736 L 1167 736 L 1167 733 Z M 1110 733 L 1110 761 L 1113 761 L 1113 741 L 1114 740 L 1116 742 L 1116 743 L 1118 745 L 1118 746 L 1119 747 L 1119 748 L 1121 750 L 1121 751 L 1122 752 L 1122 753 L 1123 754 L 1124 754 L 1124 753 L 1126 751 L 1126 750 L 1128 748 L 1128 747 L 1129 746 L 1129 745 L 1131 743 L 1131 742 L 1133 740 L 1134 741 L 1134 761 L 1137 761 L 1137 733 L 1133 733 L 1133 734 L 1131 736 L 1131 737 L 1130 738 L 1130 739 L 1128 741 L 1128 742 L 1127 743 L 1127 744 L 1125 746 L 1125 747 L 1124 748 L 1123 748 L 1122 747 L 1122 746 L 1120 744 L 1120 743 L 1119 742 L 1119 741 L 1117 739 L 1117 738 L 1116 737 L 1116 736 L 1114 734 L 1114 733 Z M 1081 733 L 1081 761 L 1098 761 L 1098 759 L 1097 758 L 1096 759 L 1095 758 L 1094 759 L 1086 759 L 1084 757 L 1084 750 L 1085 749 L 1096 749 L 1096 746 L 1085 746 L 1084 745 L 1084 737 L 1085 736 L 1097 736 L 1097 733 Z M 1053 733 L 1052 734 L 1050 734 L 1048 736 L 1047 736 L 1046 737 L 1046 738 L 1044 740 L 1044 742 L 1043 743 L 1043 752 L 1044 753 L 1044 754 L 1045 755 L 1045 756 L 1049 760 L 1050 760 L 1051 761 L 1053 761 L 1054 762 L 1059 762 L 1060 761 L 1063 761 L 1064 760 L 1065 760 L 1069 756 L 1068 755 L 1067 755 L 1066 754 L 1062 758 L 1061 758 L 1060 759 L 1054 759 L 1053 758 L 1052 758 L 1050 756 L 1049 756 L 1048 755 L 1048 754 L 1047 753 L 1047 752 L 1046 751 L 1046 743 L 1047 742 L 1047 741 L 1051 737 L 1052 737 L 1053 736 L 1061 736 L 1063 738 L 1064 738 L 1066 740 L 1067 740 L 1068 739 L 1069 739 L 1064 734 L 1062 734 L 1061 733 Z M 1010 733 L 1009 734 L 1009 761 L 1012 761 L 1012 742 L 1013 741 L 1016 744 L 1016 745 L 1019 748 L 1019 749 L 1021 751 L 1021 752 L 1023 754 L 1023 755 L 1024 756 L 1024 757 L 1027 760 L 1027 761 L 1030 761 L 1030 733 L 1028 733 L 1027 734 L 1027 752 L 1026 753 L 1024 751 L 1024 750 L 1021 747 L 1021 746 L 1019 744 L 1019 743 L 1017 741 L 1017 740 L 1015 738 L 1015 737 L 1013 735 L 1013 734 L 1012 733 Z M 975 733 L 975 755 L 976 756 L 976 757 L 977 758 L 977 759 L 978 760 L 979 760 L 980 761 L 983 761 L 984 762 L 987 762 L 988 761 L 991 761 L 995 757 L 995 755 L 996 754 L 996 734 L 995 733 L 993 733 L 993 754 L 992 755 L 992 756 L 990 758 L 989 758 L 988 759 L 983 759 L 982 758 L 981 758 L 979 756 L 979 755 L 978 754 L 978 733 Z M 945 733 L 944 734 L 942 734 L 936 740 L 936 741 L 935 742 L 935 745 L 934 746 L 934 749 L 935 750 L 935 753 L 936 754 L 936 755 L 941 760 L 942 760 L 943 761 L 945 761 L 946 762 L 951 762 L 952 761 L 955 761 L 957 759 L 958 759 L 961 756 L 961 755 L 962 754 L 962 753 L 963 752 L 963 743 L 962 742 L 962 741 L 961 740 L 961 739 L 957 735 L 956 735 L 955 734 L 954 734 L 953 733 Z M 944 737 L 945 736 L 952 736 L 953 737 L 954 737 L 955 738 L 956 738 L 958 740 L 958 741 L 960 743 L 960 751 L 959 752 L 959 753 L 954 758 L 953 758 L 952 759 L 946 759 L 945 758 L 944 758 L 942 756 L 941 756 L 940 755 L 940 754 L 938 752 L 938 749 L 937 748 L 937 746 L 938 745 L 938 743 L 939 742 L 939 741 L 943 737 Z M 901 733 L 901 761 L 904 761 L 904 742 L 905 741 L 908 744 L 908 745 L 910 747 L 910 748 L 912 750 L 912 751 L 914 753 L 914 754 L 916 756 L 916 757 L 919 760 L 919 761 L 922 761 L 922 733 L 920 733 L 919 734 L 919 752 L 918 753 L 915 750 L 915 749 L 913 747 L 913 746 L 911 744 L 911 743 L 908 740 L 908 739 L 906 737 L 906 736 L 904 734 L 904 733 Z M 866 733 L 866 761 L 869 761 L 869 742 L 870 741 L 873 744 L 873 745 L 875 747 L 875 748 L 877 750 L 877 751 L 879 753 L 879 754 L 881 756 L 881 757 L 884 760 L 884 761 L 887 761 L 887 733 L 884 733 L 884 752 L 883 753 L 880 750 L 880 749 L 878 747 L 878 746 L 875 743 L 875 742 L 873 740 L 873 739 L 871 737 L 871 736 L 868 733 Z M 840 733 L 840 734 L 839 735 L 839 737 L 838 738 L 838 739 L 837 740 L 837 742 L 836 743 L 836 745 L 835 746 L 835 748 L 834 749 L 834 750 L 833 751 L 833 753 L 832 754 L 832 756 L 831 757 L 831 758 L 830 759 L 830 761 L 833 761 L 833 760 L 834 759 L 834 757 L 836 755 L 848 755 L 850 757 L 850 759 L 851 760 L 851 761 L 854 761 L 854 760 L 853 759 L 853 757 L 852 756 L 852 754 L 851 753 L 851 751 L 850 750 L 850 749 L 849 748 L 849 746 L 848 745 L 848 743 L 847 742 L 847 741 L 846 740 L 846 738 L 845 737 L 845 735 L 844 734 L 844 733 Z M 841 739 L 842 738 L 843 739 L 843 740 L 844 741 L 844 743 L 845 744 L 845 745 L 846 746 L 846 748 L 847 749 L 847 751 L 846 752 L 838 752 L 837 751 L 837 748 L 838 747 L 838 746 L 839 745 L 839 743 L 840 742 L 840 741 L 841 740 Z M 786 733 L 786 761 L 803 761 L 803 759 L 791 759 L 789 757 L 789 750 L 790 749 L 801 749 L 801 746 L 790 746 L 789 745 L 789 737 L 790 736 L 803 736 L 803 734 L 802 733 Z M 757 733 L 756 734 L 756 761 L 773 761 L 773 759 L 763 759 L 762 758 L 760 758 L 759 757 L 759 750 L 760 749 L 771 749 L 772 748 L 772 746 L 761 746 L 759 744 L 759 737 L 760 736 L 773 736 L 773 733 Z M 722 733 L 722 734 L 723 735 L 723 736 L 724 737 L 724 738 L 726 740 L 726 741 L 727 742 L 727 743 L 728 744 L 728 745 L 730 747 L 730 748 L 732 750 L 732 761 L 735 761 L 735 749 L 737 747 L 737 746 L 738 745 L 738 744 L 740 742 L 740 741 L 741 740 L 741 739 L 742 738 L 742 737 L 744 735 L 744 733 L 742 733 L 740 735 L 740 736 L 739 737 L 739 738 L 737 740 L 737 741 L 736 742 L 736 743 L 735 744 L 735 745 L 734 746 L 733 746 L 731 744 L 731 743 L 729 741 L 729 740 L 728 739 L 728 738 L 727 737 L 727 736 L 726 735 L 726 734 L 725 733 Z M 695 733 L 694 734 L 692 734 L 686 740 L 686 742 L 685 743 L 685 752 L 686 753 L 686 754 L 687 755 L 687 756 L 691 760 L 692 760 L 693 761 L 696 761 L 697 762 L 701 762 L 702 761 L 705 761 L 706 760 L 707 760 L 712 755 L 712 753 L 713 752 L 713 743 L 712 742 L 712 740 L 707 735 L 706 735 L 705 734 L 704 734 L 703 733 Z M 695 736 L 703 736 L 704 737 L 705 737 L 709 741 L 709 742 L 710 743 L 710 751 L 709 752 L 709 753 L 704 758 L 703 758 L 702 759 L 696 759 L 695 758 L 694 758 L 688 752 L 688 743 L 690 741 L 690 740 L 692 738 L 693 738 Z M 661 733 L 660 734 L 660 761 L 676 761 L 676 759 L 665 759 L 663 757 L 663 733 Z M 629 733 L 629 761 L 632 761 L 632 753 L 634 751 L 642 751 L 643 750 L 644 750 L 645 749 L 646 749 L 646 748 L 648 746 L 648 739 L 647 738 L 647 737 L 644 734 L 642 734 L 641 733 Z M 632 737 L 633 736 L 641 736 L 642 737 L 643 737 L 644 738 L 644 739 L 645 740 L 645 745 L 642 748 L 633 748 L 632 747 Z M 589 733 L 589 761 L 592 761 L 592 741 L 593 740 L 594 741 L 594 742 L 595 743 L 595 744 L 597 746 L 597 747 L 599 749 L 599 750 L 600 751 L 600 752 L 601 753 L 601 754 L 602 755 L 603 754 L 603 753 L 605 751 L 605 750 L 606 749 L 606 748 L 607 747 L 607 746 L 609 744 L 609 743 L 610 742 L 610 741 L 611 740 L 612 741 L 612 761 L 615 761 L 615 733 L 612 733 L 611 734 L 611 735 L 609 737 L 609 738 L 608 739 L 608 740 L 606 742 L 606 743 L 605 744 L 605 745 L 604 746 L 604 747 L 602 749 L 601 748 L 601 747 L 600 746 L 600 745 L 598 743 L 598 742 L 597 741 L 597 740 L 595 738 L 595 737 L 593 735 L 593 734 L 592 733 Z M 560 733 L 560 761 L 576 761 L 576 759 L 575 758 L 564 758 L 563 757 L 563 755 L 562 754 L 562 750 L 564 748 L 565 749 L 572 749 L 573 748 L 574 749 L 575 748 L 575 746 L 564 746 L 562 744 L 562 738 L 564 736 L 576 736 L 576 733 Z M 1369 473 L 1368 474 L 1367 474 L 1354 487 L 1353 487 L 1349 491 L 1348 491 L 1345 494 L 1344 494 L 1341 497 L 1340 497 L 1338 499 L 1337 499 L 1336 500 L 1335 500 L 1333 502 L 1332 502 L 1330 504 L 1329 504 L 1328 505 L 1327 505 L 1326 506 L 1325 506 L 1323 508 L 1322 508 L 1321 509 L 1320 509 L 1319 510 L 1318 510 L 1317 511 L 1316 511 L 1315 512 L 1314 512 L 1313 513 L 1312 513 L 1311 514 L 1310 514 L 1309 515 L 1308 515 L 1307 516 L 1306 516 L 1305 517 L 1304 517 L 1303 518 L 1301 518 L 1300 519 L 1299 519 L 1298 520 L 1297 520 L 1296 521 L 1294 521 L 1293 522 L 1292 522 L 1291 523 L 1289 523 L 1288 524 L 1287 524 L 1286 525 L 1284 525 L 1283 526 L 1281 526 L 1280 527 L 1279 527 L 1278 528 L 1276 528 L 1275 529 L 1273 529 L 1272 530 L 1270 530 L 1269 531 L 1267 531 L 1266 532 L 1264 532 L 1263 533 L 1261 533 L 1260 534 L 1258 534 L 1257 535 L 1254 535 L 1253 536 L 1251 536 L 1250 537 L 1247 537 L 1246 538 L 1244 538 L 1243 539 L 1241 539 L 1240 540 L 1237 540 L 1236 541 L 1233 541 L 1232 542 L 1229 542 L 1228 543 L 1225 543 L 1224 544 L 1221 544 L 1220 545 L 1217 545 L 1216 546 L 1213 546 L 1212 547 L 1209 547 L 1208 548 L 1204 548 L 1203 549 L 1199 549 L 1198 550 L 1195 550 L 1194 551 L 1190 551 L 1189 552 L 1185 552 L 1184 553 L 1180 553 L 1179 554 L 1175 554 L 1174 555 L 1169 555 L 1168 556 L 1164 556 L 1163 557 L 1158 557 L 1157 558 L 1153 558 L 1152 559 L 1147 559 L 1146 560 L 1140 560 L 1139 561 L 1134 561 L 1133 562 L 1127 562 L 1126 563 L 1121 563 L 1120 564 L 1114 564 L 1113 565 L 1107 565 L 1106 566 L 1100 566 L 1099 567 L 1094 567 L 1093 568 L 1086 568 L 1085 569 L 1079 569 L 1078 570 L 1071 570 L 1070 571 L 1064 571 L 1063 572 L 1056 572 L 1055 573 L 1049 573 L 1048 574 L 1041 574 L 1040 575 L 1033 575 L 1032 576 L 1025 576 L 1024 577 L 1017 577 L 1016 578 L 1009 578 L 1008 579 L 1001 579 L 1000 580 L 993 580 L 992 581 L 985 581 L 984 582 L 977 582 L 976 583 L 970 583 L 969 584 L 961 584 L 960 585 L 954 585 L 953 586 L 945 586 L 944 587 L 938 587 L 937 588 L 930 588 L 929 589 L 922 589 L 921 590 L 915 590 L 914 591 L 907 591 L 906 592 L 900 592 L 899 593 L 892 593 L 891 594 L 884 594 L 883 595 L 877 595 L 876 596 L 869 596 L 868 597 L 862 597 L 861 598 L 854 598 L 853 599 L 847 599 L 846 600 L 841 600 L 840 601 L 833 601 L 832 602 L 826 602 L 825 603 L 819 603 L 818 604 L 812 604 L 811 605 L 805 605 L 804 606 L 798 606 L 797 607 L 791 607 L 790 608 L 784 608 L 783 609 L 778 609 L 777 610 L 771 610 L 770 611 L 765 611 L 764 612 L 758 612 L 757 613 L 752 613 L 751 614 L 745 614 L 744 615 L 739 615 L 738 616 L 733 616 L 732 617 L 727 617 L 726 618 L 721 618 L 720 619 L 715 619 L 714 620 L 709 620 L 708 621 L 703 621 L 702 622 L 698 622 L 697 623 L 692 623 L 691 624 L 686 624 L 685 625 L 680 625 L 679 626 L 675 626 L 674 627 L 669 627 L 668 628 L 663 628 L 662 629 L 658 629 L 657 630 L 653 630 L 652 631 L 648 631 L 647 632 L 643 632 L 642 633 L 637 633 L 636 634 L 632 634 L 631 635 L 627 635 L 626 636 L 622 636 L 621 637 L 617 637 L 616 638 L 613 638 L 612 639 L 608 639 L 607 640 L 604 640 L 603 641 L 599 641 L 598 642 L 595 642 L 594 643 L 590 643 L 589 644 L 586 644 L 585 645 L 582 645 L 581 646 L 578 646 L 577 647 L 574 647 L 573 648 L 570 648 L 569 649 L 565 649 L 564 650 L 561 650 L 560 651 L 558 651 L 557 652 L 554 652 L 553 653 L 550 653 L 549 654 L 547 654 L 546 655 L 543 655 L 542 656 L 540 656 L 539 657 L 537 657 L 536 658 L 533 658 L 532 659 L 530 659 L 529 660 L 527 660 L 526 661 L 523 661 L 522 662 L 520 662 L 519 663 L 517 663 L 516 664 L 514 664 L 513 665 L 511 665 L 510 666 L 508 666 L 507 667 L 506 667 L 505 668 L 503 668 L 502 669 L 500 669 L 499 670 L 497 670 L 496 671 L 495 671 L 494 672 L 492 672 L 491 673 L 490 673 L 489 674 L 487 674 L 486 675 L 485 675 L 484 676 L 482 676 L 481 677 L 480 677 L 479 678 L 478 678 L 477 679 L 475 679 L 474 680 L 473 680 L 472 681 L 471 681 L 470 682 L 469 682 L 468 683 L 467 683 L 466 684 L 465 684 L 464 685 L 462 685 L 461 686 L 460 686 L 458 688 L 457 688 L 456 689 L 455 689 L 454 690 L 453 690 L 452 691 L 451 691 L 450 692 L 449 692 L 447 694 L 446 694 L 445 695 L 444 695 L 442 697 L 441 697 L 440 698 L 439 698 L 437 700 L 436 700 L 434 702 L 433 702 L 431 704 L 430 704 L 428 706 L 427 706 L 424 709 L 423 709 L 418 714 L 417 714 L 404 727 L 404 728 L 401 731 L 401 732 L 399 734 L 399 735 L 398 736 L 398 737 L 396 739 L 396 741 L 395 742 L 395 743 L 394 744 L 394 749 L 393 750 L 393 753 L 394 754 L 394 756 L 395 757 L 395 758 L 396 758 L 397 759 L 398 759 L 399 760 L 400 760 L 401 759 L 403 759 L 407 755 L 407 754 L 418 743 L 419 743 L 422 740 L 423 740 L 426 737 L 427 737 L 428 736 L 429 736 L 431 734 L 432 734 L 433 733 L 434 733 L 436 731 L 437 731 L 438 730 L 439 730 L 440 729 L 441 729 L 442 728 L 443 728 L 444 727 L 445 727 L 446 726 L 447 726 L 448 725 L 449 725 L 450 724 L 451 724 L 452 723 L 453 723 L 454 722 L 455 722 L 456 721 L 457 721 L 458 720 L 460 720 L 461 719 L 462 719 L 463 718 L 465 718 L 466 717 L 467 717 L 468 716 L 470 716 L 471 715 L 472 715 L 473 714 L 475 714 L 476 713 L 478 713 L 479 712 L 480 712 L 481 711 L 483 711 L 484 710 L 486 710 L 487 709 L 489 709 L 490 708 L 492 708 L 493 707 L 495 707 L 496 706 L 498 706 L 499 705 L 501 705 L 502 704 L 504 704 L 505 703 L 507 703 L 508 702 L 510 702 L 511 701 L 514 701 L 515 700 L 517 700 L 518 699 L 520 699 L 521 698 L 524 698 L 525 697 L 527 697 L 528 696 L 531 696 L 532 695 L 534 695 L 535 694 L 538 694 L 539 693 L 542 693 L 543 692 L 546 692 L 547 691 L 550 691 L 551 690 L 553 690 L 554 689 L 557 689 L 558 688 L 561 688 L 562 687 L 566 687 L 567 686 L 570 686 L 571 685 L 574 685 L 575 684 L 578 684 L 579 683 L 582 683 L 583 682 L 587 682 L 588 681 L 591 681 L 592 680 L 596 680 L 597 679 L 600 679 L 601 678 L 605 678 L 606 677 L 609 677 L 610 676 L 614 676 L 615 675 L 618 675 L 619 674 L 623 674 L 624 673 L 628 673 L 629 672 L 633 672 L 634 671 L 638 671 L 639 670 L 643 670 L 644 669 L 648 669 L 649 668 L 653 668 L 654 667 L 658 667 L 659 666 L 663 666 L 664 665 L 669 665 L 670 664 L 674 664 L 675 663 L 679 663 L 680 662 L 685 662 L 686 661 L 690 661 L 691 660 L 696 660 L 697 659 L 701 659 L 702 658 L 707 658 L 708 657 L 712 657 L 713 656 L 718 656 L 719 655 L 724 655 L 725 654 L 730 654 L 731 653 L 736 653 L 737 652 L 742 652 L 743 651 L 748 651 L 749 650 L 754 650 L 755 649 L 760 649 L 761 648 L 766 648 L 767 647 L 771 647 L 772 646 L 777 646 L 778 645 L 783 645 L 784 644 L 789 644 L 790 643 L 795 643 L 796 642 L 801 642 L 802 641 L 807 641 L 808 640 L 813 640 L 814 639 L 820 639 L 821 638 L 826 638 L 827 637 L 833 637 L 834 636 L 839 636 L 840 635 L 845 635 L 846 634 L 852 634 L 853 633 L 858 633 L 859 632 L 865 632 L 866 631 L 871 631 L 872 630 L 877 630 L 878 629 L 885 629 L 886 628 L 891 628 L 892 627 L 897 627 L 898 626 L 903 626 L 904 625 L 910 625 L 911 624 L 917 624 L 918 623 L 924 623 L 925 622 L 930 622 L 931 621 L 937 621 L 938 620 L 944 620 L 945 619 L 951 619 L 952 618 L 957 618 L 958 617 L 964 617 L 965 616 L 970 616 L 971 615 L 977 615 L 978 614 L 983 614 L 984 613 L 989 613 L 990 612 L 996 612 L 997 611 L 1002 611 L 1003 610 L 1008 610 L 1009 609 L 1015 609 L 1016 608 L 1022 608 L 1023 607 L 1028 607 L 1029 606 L 1034 606 L 1035 605 L 1041 605 L 1042 604 L 1048 604 L 1049 603 L 1054 603 L 1055 602 L 1060 602 L 1061 601 L 1066 601 L 1067 600 L 1072 600 L 1073 599 L 1078 599 L 1079 598 L 1084 598 L 1085 597 L 1089 597 L 1090 596 L 1095 596 L 1096 595 L 1100 595 L 1101 594 L 1106 594 L 1107 593 L 1111 593 L 1112 592 L 1116 592 L 1117 591 L 1121 591 L 1122 590 L 1127 590 L 1128 589 L 1132 589 L 1133 588 L 1137 588 L 1138 587 L 1142 587 L 1143 586 L 1147 586 L 1148 585 L 1152 585 L 1153 584 L 1156 584 L 1157 583 L 1161 583 L 1162 582 L 1165 582 L 1166 581 L 1169 581 L 1170 580 L 1174 580 L 1175 579 L 1178 579 L 1179 578 L 1182 578 L 1183 577 L 1186 577 L 1187 576 L 1190 576 L 1191 575 L 1194 575 L 1195 574 L 1198 574 L 1199 573 L 1202 573 L 1203 572 L 1206 572 L 1207 571 L 1209 571 L 1210 570 L 1213 570 L 1214 569 L 1217 569 L 1218 568 L 1220 568 L 1221 567 L 1223 567 L 1224 566 L 1227 566 L 1228 565 L 1230 565 L 1231 564 L 1233 564 L 1234 563 L 1236 563 L 1237 562 L 1239 562 L 1240 561 L 1242 561 L 1243 560 L 1245 560 L 1246 559 L 1248 559 L 1249 558 L 1251 558 L 1252 557 L 1254 557 L 1255 556 L 1257 556 L 1258 555 L 1259 555 L 1260 554 L 1262 554 L 1263 553 L 1265 553 L 1266 552 L 1267 552 L 1268 551 L 1270 551 L 1271 550 L 1273 550 L 1274 549 L 1275 549 L 1276 548 L 1277 548 L 1278 547 L 1280 547 L 1281 546 L 1282 546 L 1283 545 L 1285 545 L 1286 544 L 1287 544 L 1288 543 L 1289 543 L 1290 542 L 1291 542 L 1292 541 L 1293 541 L 1294 540 L 1295 540 L 1296 539 L 1298 539 L 1299 538 L 1300 538 L 1301 537 L 1302 537 L 1303 536 L 1304 536 L 1305 535 L 1306 535 L 1307 534 L 1308 534 L 1309 533 L 1310 533 L 1311 532 L 1312 532 L 1313 531 L 1314 531 L 1316 529 L 1317 529 L 1318 528 L 1319 528 L 1320 527 L 1321 527 L 1322 526 L 1323 526 L 1325 524 L 1326 524 L 1327 523 L 1328 523 L 1330 521 L 1331 521 L 1333 519 L 1334 519 L 1336 517 L 1337 517 L 1339 515 L 1340 515 L 1343 512 L 1344 512 L 1347 509 L 1348 509 L 1353 504 L 1354 504 L 1369 489 L 1369 488 L 1372 485 L 1372 484 L 1374 482 L 1374 481 L 1375 480 L 1375 476 L 1374 475 L 1374 474 L 1373 474 L 1372 473 Z M 1243 455 L 1242 456 L 1239 456 L 1238 457 L 1237 457 L 1236 458 L 1235 458 L 1234 459 L 1233 459 L 1225 467 L 1225 468 L 1223 470 L 1223 471 L 1222 472 L 1222 474 L 1221 475 L 1221 477 L 1220 478 L 1220 490 L 1221 491 L 1221 493 L 1222 494 L 1222 495 L 1223 496 L 1223 497 L 1229 503 L 1230 503 L 1231 504 L 1232 504 L 1233 505 L 1235 505 L 1236 506 L 1248 506 L 1249 505 L 1251 505 L 1252 504 L 1253 504 L 1254 503 L 1255 503 L 1256 502 L 1257 502 L 1265 494 L 1265 493 L 1266 492 L 1266 491 L 1267 490 L 1267 489 L 1268 488 L 1268 486 L 1269 485 L 1269 483 L 1270 482 L 1270 472 L 1269 471 L 1269 469 L 1268 468 L 1268 467 L 1267 466 L 1267 465 L 1266 464 L 1266 463 L 1262 459 L 1261 459 L 1259 457 L 1258 457 L 1257 456 L 1255 456 L 1254 455 Z M 931 323 L 930 324 L 926 324 L 925 325 L 923 325 L 922 326 L 921 326 L 920 327 L 919 327 L 916 330 L 915 330 L 909 336 L 909 337 L 907 339 L 907 340 L 906 341 L 906 342 L 905 343 L 905 344 L 904 345 L 904 346 L 903 347 L 903 349 L 902 350 L 902 353 L 901 354 L 901 370 L 902 371 L 902 373 L 903 374 L 903 376 L 904 377 L 904 378 L 906 380 L 906 381 L 907 382 L 907 383 L 904 386 L 904 387 L 901 390 L 901 391 L 893 399 L 893 400 L 874 419 L 873 419 L 867 425 L 866 425 L 863 428 L 862 428 L 860 430 L 859 430 L 857 432 L 856 432 L 854 434 L 853 434 L 851 436 L 850 436 L 849 437 L 848 437 L 846 439 L 845 439 L 844 440 L 843 440 L 842 441 L 841 441 L 840 442 L 838 442 L 837 443 L 836 443 L 835 444 L 834 444 L 833 445 L 831 445 L 830 446 L 827 446 L 826 447 L 825 447 L 824 446 L 824 444 L 825 443 L 825 421 L 824 420 L 824 415 L 823 414 L 823 411 L 822 410 L 822 408 L 821 407 L 821 405 L 820 404 L 820 403 L 819 402 L 819 401 L 818 400 L 818 399 L 817 398 L 817 397 L 815 395 L 815 394 L 807 386 L 806 386 L 804 384 L 803 384 L 802 383 L 801 383 L 800 382 L 799 382 L 798 381 L 796 381 L 795 380 L 792 380 L 791 379 L 786 379 L 785 378 L 776 378 L 775 379 L 768 379 L 767 380 L 764 380 L 763 381 L 760 381 L 759 382 L 757 382 L 756 383 L 754 383 L 753 384 L 751 384 L 750 385 L 749 385 L 748 386 L 746 386 L 745 387 L 744 387 L 743 388 L 742 388 L 741 389 L 740 389 L 739 390 L 738 390 L 737 391 L 736 391 L 735 392 L 734 392 L 733 393 L 732 393 L 730 395 L 729 395 L 728 396 L 727 396 L 725 398 L 724 398 L 722 400 L 721 400 L 719 402 L 718 402 L 715 405 L 714 405 L 712 407 L 711 407 L 706 412 L 705 412 L 700 417 L 699 417 L 681 435 L 681 436 L 676 441 L 676 442 L 672 446 L 672 447 L 669 450 L 669 451 L 667 453 L 667 454 L 665 456 L 665 457 L 663 459 L 663 460 L 661 462 L 661 463 L 659 465 L 659 466 L 658 467 L 658 468 L 657 469 L 657 470 L 655 472 L 655 473 L 654 474 L 654 475 L 653 476 L 653 477 L 652 478 L 652 479 L 651 480 L 651 482 L 650 483 L 650 484 L 649 485 L 649 486 L 648 487 L 648 488 L 647 489 L 647 491 L 646 492 L 646 494 L 645 495 L 645 496 L 644 497 L 644 499 L 643 500 L 643 503 L 642 504 L 642 506 L 641 507 L 641 511 L 640 512 L 640 517 L 639 518 L 639 540 L 640 541 L 640 544 L 641 545 L 641 548 L 642 549 L 642 551 L 643 552 L 643 553 L 644 554 L 644 555 L 645 556 L 645 557 L 646 558 L 646 559 L 647 560 L 647 561 L 650 564 L 650 565 L 656 571 L 657 571 L 660 574 L 661 574 L 663 576 L 664 576 L 665 577 L 666 577 L 667 578 L 668 578 L 669 579 L 671 579 L 672 580 L 674 580 L 675 581 L 677 581 L 678 582 L 683 582 L 684 583 L 704 583 L 705 582 L 710 582 L 711 581 L 714 581 L 715 580 L 717 580 L 718 579 L 720 579 L 721 578 L 723 578 L 724 577 L 725 577 L 726 576 L 728 576 L 729 575 L 730 575 L 731 574 L 732 574 L 733 573 L 734 573 L 735 572 L 736 572 L 738 570 L 739 570 L 740 569 L 741 569 L 743 567 L 744 567 L 746 565 L 747 565 L 749 563 L 750 563 L 753 560 L 754 560 L 759 555 L 760 555 L 768 547 L 769 547 L 772 544 L 772 543 L 782 533 L 782 532 L 786 528 L 786 527 L 789 524 L 789 523 L 792 520 L 792 519 L 794 517 L 794 516 L 796 514 L 796 513 L 798 511 L 798 510 L 800 508 L 800 507 L 802 505 L 802 504 L 803 503 L 803 502 L 804 501 L 804 500 L 806 498 L 806 497 L 807 496 L 807 495 L 808 494 L 808 493 L 809 492 L 809 491 L 810 490 L 810 489 L 811 488 L 811 487 L 812 486 L 812 484 L 813 483 L 813 482 L 814 481 L 814 480 L 815 479 L 815 477 L 816 476 L 816 475 L 817 474 L 817 472 L 818 471 L 818 469 L 819 468 L 819 465 L 821 463 L 822 463 L 823 462 L 826 462 L 827 461 L 830 461 L 831 460 L 833 460 L 834 459 L 836 459 L 837 458 L 839 458 L 840 457 L 841 457 L 842 456 L 844 456 L 845 455 L 846 455 L 847 454 L 848 454 L 849 453 L 850 453 L 851 452 L 852 452 L 854 450 L 855 450 L 856 449 L 857 449 L 858 448 L 859 448 L 861 446 L 862 446 L 864 444 L 865 444 L 867 442 L 868 442 L 871 439 L 872 439 L 875 436 L 876 436 L 880 432 L 881 432 L 888 425 L 889 425 L 904 410 L 904 409 L 913 400 L 913 399 L 920 392 L 921 392 L 922 393 L 923 393 L 924 394 L 927 394 L 928 395 L 931 395 L 932 396 L 940 396 L 941 397 L 943 397 L 944 398 L 945 398 L 948 401 L 948 402 L 949 403 L 949 405 L 948 406 L 948 408 L 947 409 L 947 410 L 946 411 L 946 412 L 944 414 L 944 415 L 942 417 L 942 418 L 940 420 L 940 421 L 938 423 L 938 424 L 935 427 L 935 428 L 933 430 L 933 431 L 931 433 L 931 434 L 928 437 L 928 438 L 926 440 L 926 441 L 924 443 L 924 444 L 922 446 L 922 447 L 920 449 L 920 450 L 918 452 L 918 453 L 916 455 L 916 456 L 914 458 L 914 459 L 912 461 L 912 462 L 911 463 L 911 464 L 909 466 L 909 467 L 908 468 L 908 469 L 906 471 L 906 472 L 905 473 L 905 474 L 904 475 L 904 476 L 903 477 L 903 478 L 902 479 L 902 480 L 901 481 L 901 482 L 900 483 L 900 484 L 899 485 L 899 486 L 898 487 L 898 488 L 897 489 L 897 490 L 896 491 L 896 493 L 895 494 L 895 495 L 894 496 L 894 498 L 893 499 L 893 502 L 892 503 L 892 506 L 891 507 L 891 513 L 890 514 L 890 520 L 891 521 L 891 526 L 892 527 L 892 530 L 893 531 L 893 532 L 894 533 L 894 534 L 895 535 L 895 536 L 896 537 L 896 538 L 903 545 L 904 545 L 906 547 L 907 547 L 908 548 L 909 548 L 910 549 L 912 549 L 913 550 L 916 550 L 917 551 L 922 551 L 923 552 L 930 552 L 931 551 L 937 551 L 938 550 L 941 550 L 942 549 L 944 549 L 945 548 L 947 548 L 948 547 L 950 547 L 951 546 L 952 546 L 953 545 L 955 545 L 956 544 L 957 544 L 958 543 L 959 543 L 960 542 L 961 542 L 963 540 L 964 540 L 965 539 L 966 539 L 968 537 L 969 537 L 971 535 L 972 535 L 974 533 L 975 533 L 978 530 L 979 530 L 983 526 L 984 526 L 992 518 L 993 518 L 1009 502 L 1009 501 L 1019 491 L 1019 490 L 1022 487 L 1023 487 L 1024 488 L 1024 494 L 1025 495 L 1025 498 L 1026 499 L 1026 501 L 1027 502 L 1027 504 L 1028 505 L 1028 506 L 1029 507 L 1029 508 L 1031 510 L 1031 511 L 1033 513 L 1033 514 L 1040 521 L 1041 521 L 1044 524 L 1045 524 L 1046 525 L 1047 525 L 1048 526 L 1049 526 L 1050 527 L 1051 527 L 1052 528 L 1053 528 L 1054 529 L 1056 529 L 1057 530 L 1059 530 L 1060 531 L 1064 531 L 1065 532 L 1069 532 L 1070 533 L 1088 533 L 1089 532 L 1096 532 L 1097 531 L 1100 531 L 1101 530 L 1104 530 L 1105 529 L 1108 529 L 1109 528 L 1111 528 L 1112 527 L 1114 527 L 1115 526 L 1117 526 L 1118 525 L 1120 525 L 1121 524 L 1122 524 L 1123 523 L 1124 523 L 1125 522 L 1126 522 L 1127 521 L 1129 521 L 1130 520 L 1131 520 L 1133 518 L 1134 518 L 1135 517 L 1136 517 L 1137 516 L 1138 516 L 1139 515 L 1140 515 L 1141 514 L 1142 514 L 1144 512 L 1145 512 L 1147 510 L 1148 510 L 1150 508 L 1151 508 L 1153 506 L 1154 506 L 1157 503 L 1158 503 L 1161 500 L 1162 500 L 1167 495 L 1168 495 L 1178 485 L 1179 485 L 1186 478 L 1186 477 L 1196 467 L 1196 466 L 1201 461 L 1201 460 L 1205 456 L 1205 455 L 1208 452 L 1208 451 L 1211 448 L 1211 447 L 1213 445 L 1213 444 L 1214 443 L 1214 442 L 1215 441 L 1215 435 L 1212 432 L 1208 432 L 1207 433 L 1206 433 L 1204 435 L 1204 436 L 1199 441 L 1199 442 L 1193 448 L 1193 449 L 1167 475 L 1166 475 L 1161 480 L 1160 480 L 1156 484 L 1155 484 L 1153 486 L 1152 486 L 1149 489 L 1148 489 L 1146 491 L 1145 491 L 1144 492 L 1143 492 L 1141 494 L 1140 494 L 1139 495 L 1138 495 L 1137 496 L 1136 496 L 1134 498 L 1133 498 L 1132 499 L 1131 499 L 1130 500 L 1128 500 L 1127 501 L 1126 501 L 1125 502 L 1124 502 L 1123 503 L 1121 503 L 1120 504 L 1118 504 L 1117 505 L 1114 505 L 1113 506 L 1110 506 L 1109 507 L 1103 507 L 1102 508 L 1098 508 L 1097 507 L 1091 507 L 1090 506 L 1088 506 L 1087 505 L 1086 505 L 1085 504 L 1084 504 L 1082 502 L 1081 502 L 1077 498 L 1077 497 L 1075 495 L 1075 494 L 1074 493 L 1074 492 L 1073 491 L 1073 489 L 1072 488 L 1072 483 L 1071 482 L 1071 473 L 1072 472 L 1072 466 L 1073 465 L 1073 462 L 1075 460 L 1077 460 L 1078 459 L 1087 459 L 1088 458 L 1094 458 L 1095 457 L 1100 457 L 1101 456 L 1104 456 L 1105 455 L 1108 455 L 1109 454 L 1112 454 L 1113 453 L 1115 453 L 1116 452 L 1118 452 L 1119 451 L 1121 451 L 1122 450 L 1123 450 L 1124 449 L 1126 449 L 1127 448 L 1128 448 L 1129 447 L 1131 447 L 1132 446 L 1133 446 L 1134 445 L 1135 445 L 1136 444 L 1137 444 L 1138 443 L 1139 443 L 1140 442 L 1141 442 L 1142 441 L 1143 441 L 1144 440 L 1145 440 L 1147 438 L 1148 438 L 1150 436 L 1151 436 L 1152 435 L 1153 435 L 1155 433 L 1156 433 L 1159 430 L 1160 430 L 1163 427 L 1164 427 L 1170 421 L 1171 421 L 1180 412 L 1180 411 L 1184 407 L 1184 406 L 1187 403 L 1187 402 L 1189 400 L 1189 399 L 1190 398 L 1190 397 L 1192 395 L 1192 394 L 1193 393 L 1193 392 L 1194 391 L 1194 389 L 1195 388 L 1195 387 L 1196 386 L 1196 384 L 1197 383 L 1197 381 L 1198 380 L 1198 376 L 1199 375 L 1199 362 L 1198 361 L 1198 358 L 1197 357 L 1197 355 L 1196 354 L 1196 353 L 1195 352 L 1195 351 L 1193 349 L 1193 348 L 1189 344 L 1188 344 L 1186 342 L 1185 342 L 1184 341 L 1183 341 L 1182 340 L 1181 340 L 1180 339 L 1178 339 L 1177 338 L 1175 338 L 1174 337 L 1170 337 L 1169 336 L 1152 336 L 1151 337 L 1146 337 L 1145 338 L 1141 338 L 1140 339 L 1138 339 L 1137 340 L 1134 340 L 1133 341 L 1131 341 L 1130 342 L 1128 342 L 1127 343 L 1126 343 L 1125 344 L 1124 344 L 1123 345 L 1121 345 L 1120 346 L 1119 346 L 1118 347 L 1117 347 L 1116 348 L 1115 348 L 1114 349 L 1113 349 L 1111 351 L 1110 351 L 1109 352 L 1108 352 L 1107 353 L 1106 353 L 1104 355 L 1103 355 L 1101 357 L 1100 357 L 1098 359 L 1097 359 L 1095 361 L 1094 361 L 1090 365 L 1089 365 L 1085 369 L 1084 369 L 1075 378 L 1074 378 L 1071 381 L 1071 382 L 1061 392 L 1061 393 L 1056 398 L 1056 399 L 1053 402 L 1053 403 L 1050 406 L 1050 407 L 1048 409 L 1048 410 L 1046 412 L 1046 413 L 1044 415 L 1044 416 L 1043 417 L 1043 418 L 1041 420 L 1041 421 L 1040 422 L 1040 423 L 1039 424 L 1039 425 L 1038 426 L 1038 427 L 1037 428 L 1037 429 L 1036 430 L 1036 431 L 1035 432 L 1035 433 L 1034 434 L 1034 435 L 1033 436 L 1033 437 L 1032 438 L 1032 440 L 1031 441 L 1031 442 L 1030 443 L 1030 445 L 1029 446 L 1029 448 L 1028 449 L 1028 451 L 1027 452 L 1027 455 L 1026 456 L 1026 459 L 1025 460 L 1025 462 L 1019 468 L 1019 469 L 1012 476 L 1012 477 L 986 503 L 985 503 L 979 509 L 978 509 L 975 512 L 974 512 L 971 515 L 970 515 L 968 517 L 967 517 L 966 518 L 965 518 L 963 520 L 962 520 L 961 521 L 960 521 L 959 522 L 957 522 L 956 523 L 954 523 L 953 524 L 946 524 L 945 523 L 944 523 L 943 522 L 942 522 L 941 521 L 941 520 L 939 518 L 939 508 L 940 507 L 940 505 L 941 504 L 941 503 L 942 502 L 942 500 L 943 499 L 943 498 L 945 496 L 945 495 L 946 494 L 946 493 L 947 492 L 947 491 L 948 490 L 948 489 L 950 487 L 950 486 L 952 484 L 952 483 L 954 481 L 954 480 L 955 479 L 955 478 L 957 476 L 957 475 L 959 473 L 959 472 L 961 470 L 961 469 L 963 467 L 963 466 L 964 465 L 964 464 L 966 462 L 966 461 L 968 459 L 968 458 L 970 456 L 970 455 L 972 453 L 972 452 L 974 450 L 974 449 L 975 448 L 975 447 L 977 445 L 977 444 L 979 442 L 979 441 L 980 440 L 980 439 L 982 437 L 982 436 L 983 435 L 983 434 L 985 432 L 985 431 L 986 430 L 986 429 L 987 428 L 987 427 L 988 426 L 988 424 L 989 423 L 989 422 L 990 421 L 990 419 L 991 418 L 991 414 L 992 413 L 992 405 L 991 404 L 991 401 L 990 400 L 990 398 L 988 396 L 988 395 L 986 393 L 986 392 L 984 390 L 983 390 L 980 387 L 979 387 L 978 386 L 977 386 L 976 385 L 975 385 L 974 384 L 972 384 L 971 383 L 969 383 L 968 382 L 965 382 L 964 381 L 960 381 L 959 380 L 955 380 L 954 379 L 951 379 L 950 378 L 947 378 L 946 377 L 945 377 L 944 376 L 942 376 L 941 375 L 940 375 L 936 371 L 939 368 L 939 367 L 941 365 L 941 364 L 943 362 L 943 361 L 944 360 L 944 359 L 946 357 L 946 355 L 947 354 L 947 353 L 948 352 L 948 351 L 949 350 L 949 348 L 950 347 L 950 343 L 951 342 L 951 337 L 950 336 L 950 333 L 949 332 L 949 331 L 947 329 L 947 328 L 946 327 L 945 327 L 943 325 L 941 325 L 940 324 L 937 324 L 936 323 Z M 792 420 L 793 419 L 799 419 L 800 420 L 801 420 L 803 422 L 803 432 L 802 433 L 802 439 L 801 440 L 801 444 L 800 445 L 800 447 L 799 448 L 797 448 L 796 447 L 794 447 L 793 446 L 792 446 L 791 445 L 790 445 L 784 439 L 784 437 L 783 436 L 783 428 L 784 427 L 784 426 L 790 420 Z M 775 396 L 776 395 L 787 395 L 788 396 L 789 396 L 790 397 L 791 397 L 792 398 L 793 398 L 796 401 L 796 402 L 798 404 L 798 405 L 797 406 L 792 406 L 791 407 L 788 407 L 787 408 L 785 408 L 784 409 L 783 409 L 782 410 L 781 410 L 779 412 L 778 412 L 775 415 L 775 416 L 773 418 L 773 419 L 772 420 L 772 422 L 771 423 L 771 425 L 770 426 L 770 431 L 769 432 L 769 435 L 770 436 L 770 440 L 771 441 L 771 443 L 772 444 L 772 446 L 773 447 L 773 448 L 775 450 L 775 451 L 779 455 L 780 455 L 782 457 L 783 457 L 785 459 L 787 459 L 788 460 L 789 460 L 790 461 L 792 461 L 794 463 L 794 464 L 793 465 L 793 466 L 792 467 L 792 468 L 791 469 L 791 470 L 790 471 L 790 473 L 789 474 L 789 475 L 788 476 L 788 477 L 787 478 L 787 479 L 786 480 L 786 481 L 784 483 L 784 484 L 783 485 L 783 486 L 782 487 L 782 488 L 781 489 L 781 490 L 780 491 L 780 492 L 778 494 L 778 495 L 777 496 L 777 497 L 775 499 L 775 500 L 774 501 L 774 502 L 772 504 L 772 505 L 771 506 L 771 507 L 769 509 L 769 510 L 767 512 L 767 513 L 765 515 L 765 516 L 762 519 L 762 520 L 759 523 L 759 524 L 756 527 L 756 528 L 749 535 L 749 536 L 738 547 L 737 547 L 732 552 L 731 552 L 728 555 L 727 555 L 725 557 L 724 557 L 723 558 L 722 558 L 721 559 L 720 559 L 719 560 L 718 560 L 717 561 L 716 561 L 715 562 L 713 562 L 712 563 L 708 563 L 707 564 L 701 564 L 700 563 L 697 563 L 696 562 L 695 562 L 694 561 L 693 561 L 686 554 L 686 553 L 685 552 L 685 551 L 684 550 L 684 549 L 683 548 L 683 545 L 682 544 L 682 524 L 683 523 L 683 518 L 684 517 L 684 514 L 685 513 L 685 510 L 686 509 L 686 507 L 687 506 L 687 503 L 688 502 L 688 501 L 689 500 L 689 498 L 690 497 L 690 495 L 691 494 L 691 493 L 692 492 L 692 490 L 693 489 L 693 488 L 694 487 L 694 486 L 695 485 L 695 484 L 696 483 L 696 482 L 697 481 L 697 479 L 698 478 L 698 477 L 699 476 L 699 475 L 701 473 L 701 472 L 702 471 L 702 470 L 703 469 L 703 468 L 704 467 L 704 466 L 705 465 L 705 464 L 707 462 L 707 461 L 708 460 L 708 459 L 710 457 L 710 456 L 712 454 L 712 453 L 714 451 L 714 450 L 716 448 L 716 447 L 718 445 L 718 444 L 721 441 L 721 440 L 724 437 L 724 436 L 729 431 L 729 430 L 737 422 L 737 421 L 738 420 L 739 420 L 750 409 L 751 409 L 754 406 L 755 406 L 757 404 L 758 404 L 760 402 L 761 402 L 762 401 L 763 401 L 765 399 L 766 399 L 767 398 L 769 398 L 770 397 L 771 397 L 772 396 Z M 1155 354 L 1156 353 L 1163 353 L 1164 354 L 1166 354 L 1168 356 L 1169 356 L 1171 358 L 1171 359 L 1172 360 L 1172 361 L 1173 362 L 1173 364 L 1174 365 L 1174 371 L 1173 372 L 1173 377 L 1172 378 L 1172 380 L 1171 381 L 1171 382 L 1170 383 L 1170 384 L 1169 385 L 1169 386 L 1168 387 L 1168 388 L 1167 389 L 1167 390 L 1166 391 L 1166 392 L 1165 393 L 1165 394 L 1163 396 L 1163 397 L 1161 399 L 1161 400 L 1158 403 L 1158 404 L 1141 421 L 1140 421 L 1137 424 L 1136 424 L 1133 427 L 1132 427 L 1131 428 L 1130 428 L 1128 430 L 1127 430 L 1126 431 L 1125 431 L 1124 432 L 1123 432 L 1122 433 L 1121 433 L 1119 435 L 1118 435 L 1117 436 L 1116 436 L 1115 437 L 1113 437 L 1112 438 L 1111 438 L 1110 439 L 1108 439 L 1107 440 L 1105 440 L 1104 441 L 1101 441 L 1100 442 L 1098 442 L 1097 443 L 1093 443 L 1092 444 L 1085 444 L 1084 445 L 1081 445 L 1080 444 L 1080 442 L 1081 441 L 1081 440 L 1082 439 L 1082 437 L 1083 436 L 1083 435 L 1084 434 L 1084 433 L 1085 432 L 1085 431 L 1086 430 L 1086 429 L 1087 428 L 1087 427 L 1088 426 L 1088 425 L 1090 423 L 1090 422 L 1091 421 L 1091 420 L 1092 419 L 1092 418 L 1093 417 L 1093 416 L 1095 414 L 1095 413 L 1097 411 L 1097 410 L 1098 409 L 1098 408 L 1100 406 L 1100 405 L 1102 403 L 1102 402 L 1104 400 L 1104 399 L 1107 396 L 1107 395 L 1109 393 L 1109 392 L 1113 388 L 1113 387 L 1118 382 L 1118 381 L 1135 364 L 1136 364 L 1139 361 L 1140 361 L 1142 359 L 1143 359 L 1144 358 L 1145 358 L 1146 357 L 1147 357 L 1148 356 L 1149 356 L 1150 355 L 1151 355 L 1152 354 Z M 534 194 L 533 195 L 519 195 L 518 196 L 508 196 L 507 197 L 501 197 L 500 198 L 494 198 L 493 199 L 488 199 L 487 200 L 483 200 L 482 201 L 478 201 L 477 202 L 473 202 L 472 203 L 468 203 L 467 204 L 464 204 L 463 205 L 460 205 L 459 206 L 457 206 L 456 207 L 453 207 L 452 208 L 449 208 L 448 209 L 446 209 L 445 210 L 443 210 L 442 211 L 440 211 L 439 212 L 436 212 L 435 213 L 434 213 L 433 214 L 431 214 L 430 215 L 428 215 L 427 216 L 425 216 L 424 217 L 422 217 L 421 218 L 420 218 L 419 219 L 417 219 L 416 220 L 415 220 L 414 221 L 412 221 L 411 222 L 410 222 L 409 223 L 408 223 L 407 224 L 405 224 L 404 225 L 403 225 L 402 226 L 401 226 L 400 227 L 399 227 L 398 228 L 397 228 L 396 229 L 395 229 L 394 230 L 393 230 L 392 231 L 391 231 L 390 232 L 389 232 L 388 233 L 387 233 L 386 234 L 385 234 L 384 235 L 383 235 L 381 237 L 380 237 L 379 238 L 378 238 L 377 239 L 376 239 L 374 241 L 373 241 L 372 242 L 371 242 L 369 244 L 368 244 L 367 245 L 366 245 L 364 247 L 363 247 L 361 249 L 360 249 L 357 252 L 356 252 L 354 254 L 353 254 L 350 257 L 349 257 L 345 261 L 344 261 L 339 266 L 338 266 L 317 287 L 317 288 L 313 292 L 313 293 L 310 296 L 310 297 L 307 300 L 307 301 L 305 303 L 305 304 L 303 306 L 303 307 L 302 308 L 302 309 L 300 311 L 300 312 L 299 313 L 299 314 L 298 315 L 298 316 L 297 317 L 297 318 L 296 319 L 296 320 L 295 321 L 295 322 L 294 323 L 294 324 L 293 325 L 293 326 L 292 327 L 292 328 L 291 329 L 291 331 L 290 332 L 290 334 L 289 335 L 289 337 L 288 338 L 288 340 L 287 341 L 287 344 L 286 345 L 286 348 L 285 349 L 285 354 L 284 355 L 284 361 L 283 362 L 283 378 L 284 379 L 284 385 L 285 386 L 285 390 L 286 391 L 286 393 L 287 394 L 287 396 L 288 397 L 288 399 L 289 400 L 289 401 L 290 402 L 290 403 L 291 404 L 291 405 L 292 406 L 292 407 L 293 408 L 293 409 L 295 411 L 295 412 L 299 416 L 299 417 L 304 422 L 305 422 L 308 425 L 309 425 L 311 427 L 312 427 L 313 428 L 314 428 L 315 429 L 316 429 L 317 430 L 318 430 L 319 431 L 321 431 L 322 432 L 323 432 L 324 433 L 327 433 L 328 434 L 331 434 L 332 435 L 340 435 L 341 436 L 348 436 L 349 435 L 358 435 L 359 434 L 363 434 L 364 433 L 367 433 L 368 432 L 370 432 L 371 431 L 373 431 L 374 430 L 375 430 L 376 429 L 378 429 L 379 428 L 380 428 L 381 427 L 383 427 L 384 426 L 385 426 L 386 425 L 387 425 L 388 424 L 389 424 L 391 422 L 392 422 L 393 421 L 394 421 L 395 420 L 396 420 L 398 418 L 399 418 L 402 415 L 403 415 L 405 413 L 406 413 L 411 408 L 412 408 L 430 390 L 430 389 L 435 384 L 435 383 L 437 381 L 437 380 L 440 377 L 440 376 L 442 374 L 442 373 L 444 371 L 444 370 L 445 369 L 445 368 L 447 366 L 447 365 L 448 364 L 448 363 L 449 362 L 449 361 L 450 360 L 450 359 L 451 358 L 451 357 L 453 355 L 453 354 L 454 353 L 454 351 L 455 350 L 455 349 L 456 348 L 456 347 L 457 346 L 457 344 L 458 343 L 458 342 L 459 341 L 459 339 L 460 338 L 460 336 L 461 335 L 461 333 L 462 332 L 462 330 L 463 329 L 463 327 L 464 326 L 464 323 L 465 322 L 465 318 L 466 317 L 466 313 L 467 312 L 467 306 L 468 305 L 468 291 L 467 290 L 467 289 L 464 286 L 458 286 L 454 290 L 454 292 L 453 293 L 453 295 L 452 296 L 452 299 L 451 300 L 451 302 L 450 303 L 450 305 L 449 306 L 449 308 L 448 309 L 448 311 L 447 312 L 447 313 L 446 314 L 446 316 L 445 317 L 445 318 L 444 319 L 444 321 L 443 322 L 443 323 L 442 324 L 442 325 L 441 326 L 441 327 L 440 328 L 440 329 L 439 330 L 439 331 L 438 332 L 438 333 L 437 334 L 437 335 L 436 336 L 436 337 L 435 338 L 435 339 L 434 340 L 434 341 L 432 343 L 432 344 L 431 345 L 431 346 L 429 348 L 429 349 L 427 351 L 427 352 L 425 354 L 425 355 L 423 357 L 423 358 L 420 361 L 420 362 L 417 365 L 417 366 L 411 372 L 411 373 L 395 389 L 394 389 L 389 394 L 388 394 L 385 397 L 384 397 L 382 399 L 381 399 L 379 401 L 378 401 L 377 402 L 376 402 L 374 404 L 373 404 L 372 405 L 371 405 L 370 406 L 369 406 L 368 407 L 366 407 L 365 408 L 363 408 L 362 409 L 360 409 L 359 410 L 357 410 L 356 411 L 351 411 L 350 412 L 340 412 L 339 411 L 335 411 L 334 410 L 332 410 L 331 409 L 330 409 L 329 408 L 328 408 L 327 407 L 326 407 L 324 405 L 323 405 L 318 400 L 318 399 L 316 397 L 316 396 L 314 394 L 314 393 L 313 392 L 313 390 L 312 389 L 312 387 L 311 386 L 311 380 L 310 379 L 310 371 L 311 370 L 311 364 L 312 363 L 312 359 L 313 358 L 313 356 L 314 355 L 314 353 L 315 352 L 315 350 L 316 349 L 316 348 L 317 347 L 317 346 L 318 345 L 318 343 L 319 342 L 319 341 L 320 340 L 320 339 L 322 337 L 322 336 L 323 335 L 323 334 L 325 332 L 325 331 L 327 329 L 327 328 L 329 326 L 329 325 L 331 323 L 331 322 L 335 318 L 335 317 L 344 308 L 344 307 L 345 306 L 346 306 L 357 295 L 358 295 L 363 290 L 364 290 L 367 287 L 368 287 L 371 284 L 372 284 L 374 282 L 375 282 L 378 279 L 379 279 L 381 277 L 382 277 L 384 275 L 385 275 L 386 274 L 387 274 L 389 272 L 390 272 L 392 270 L 393 270 L 394 269 L 395 269 L 397 267 L 398 267 L 399 266 L 400 266 L 401 265 L 402 265 L 403 264 L 404 264 L 406 262 L 407 262 L 408 261 L 409 261 L 410 260 L 411 260 L 412 259 L 413 259 L 414 258 L 415 258 L 416 257 L 417 257 L 418 256 L 419 256 L 420 255 L 422 255 L 423 254 L 424 254 L 425 253 L 426 253 L 427 252 L 428 252 L 429 251 L 430 251 L 431 250 L 433 250 L 434 249 L 436 249 L 437 248 L 438 248 L 439 247 L 441 247 L 442 246 L 443 246 L 444 245 L 446 245 L 447 244 L 448 244 L 449 243 L 451 243 L 452 242 L 454 242 L 455 241 L 457 241 L 458 240 L 460 240 L 461 239 L 463 239 L 464 238 L 466 238 L 467 237 L 469 237 L 470 236 L 472 236 L 473 235 L 476 235 L 477 234 L 480 234 L 481 233 L 484 233 L 485 232 L 488 232 L 489 231 L 492 231 L 493 230 L 496 230 L 497 229 L 501 229 L 502 228 L 505 228 L 506 227 L 510 227 L 511 226 L 517 226 L 518 225 L 523 225 L 524 224 L 531 224 L 532 223 L 541 223 L 542 222 L 585 222 L 586 223 L 595 223 L 596 224 L 602 224 L 603 225 L 609 225 L 610 226 L 614 226 L 615 227 L 619 227 L 620 228 L 623 228 L 624 229 L 627 229 L 628 230 L 631 230 L 632 231 L 635 231 L 636 232 L 638 232 L 639 233 L 642 233 L 643 234 L 645 234 L 646 235 L 648 235 L 649 236 L 651 236 L 652 237 L 654 237 L 655 238 L 657 238 L 658 239 L 660 239 L 661 240 L 663 240 L 664 241 L 666 241 L 667 242 L 669 242 L 670 243 L 671 243 L 672 244 L 674 244 L 675 245 L 677 245 L 678 246 L 680 246 L 681 247 L 682 247 L 683 248 L 685 248 L 686 249 L 687 249 L 688 250 L 686 252 L 685 252 L 683 254 L 682 254 L 681 255 L 680 255 L 678 257 L 677 257 L 675 259 L 674 259 L 672 261 L 671 261 L 669 263 L 668 263 L 666 265 L 665 265 L 663 267 L 662 267 L 659 270 L 658 270 L 655 273 L 654 273 L 650 277 L 649 277 L 646 280 L 645 280 L 639 286 L 638 286 L 630 294 L 629 294 L 613 310 L 613 311 L 603 321 L 603 322 L 596 329 L 596 330 L 591 335 L 591 336 L 587 340 L 587 341 L 584 344 L 584 345 L 580 349 L 580 350 L 577 353 L 577 354 L 574 357 L 574 358 L 572 360 L 572 361 L 569 364 L 569 365 L 567 367 L 567 368 L 565 370 L 565 371 L 563 373 L 563 374 L 560 377 L 560 378 L 559 379 L 559 380 L 557 382 L 557 383 L 555 385 L 555 386 L 553 388 L 553 389 L 551 391 L 551 392 L 550 393 L 550 394 L 548 396 L 548 397 L 547 398 L 547 399 L 545 401 L 545 402 L 543 404 L 542 404 L 541 405 L 535 405 L 534 406 L 528 406 L 527 407 L 522 407 L 521 408 L 516 408 L 515 409 L 511 409 L 510 410 L 506 410 L 505 411 L 501 411 L 500 412 L 497 412 L 496 413 L 493 413 L 492 414 L 489 414 L 488 415 L 485 415 L 484 416 L 482 416 L 481 417 L 478 417 L 477 418 L 475 418 L 474 419 L 472 419 L 471 420 L 470 420 L 469 421 L 467 421 L 466 422 L 465 422 L 464 423 L 462 423 L 461 424 L 460 424 L 458 426 L 457 426 L 456 427 L 455 427 L 450 432 L 449 432 L 449 433 L 446 436 L 446 442 L 448 444 L 456 444 L 457 443 L 462 443 L 463 442 L 467 442 L 468 441 L 473 441 L 474 440 L 479 440 L 480 439 L 485 439 L 486 438 L 491 438 L 492 437 L 497 437 L 498 436 L 504 436 L 505 435 L 510 435 L 511 434 L 517 434 L 518 433 L 524 433 L 525 432 L 526 433 L 526 435 L 525 436 L 525 437 L 523 439 L 523 440 L 522 441 L 522 442 L 521 443 L 521 444 L 520 445 L 520 446 L 518 448 L 518 449 L 517 450 L 517 451 L 516 452 L 516 453 L 515 454 L 515 455 L 514 456 L 514 457 L 512 459 L 512 460 L 511 461 L 511 462 L 510 463 L 510 464 L 508 466 L 508 467 L 507 468 L 507 469 L 506 470 L 506 471 L 505 472 L 505 473 L 503 475 L 503 476 L 502 477 L 502 478 L 501 479 L 501 480 L 499 482 L 499 483 L 498 484 L 498 485 L 497 486 L 497 487 L 495 489 L 495 490 L 494 491 L 494 492 L 492 494 L 492 495 L 491 496 L 491 497 L 490 498 L 490 499 L 488 501 L 488 502 L 487 503 L 487 504 L 485 506 L 485 507 L 484 508 L 484 509 L 482 511 L 482 512 L 481 513 L 481 514 L 479 516 L 479 517 L 478 518 L 478 519 L 476 521 L 476 522 L 474 524 L 474 525 L 473 526 L 473 527 L 471 529 L 471 530 L 469 532 L 469 533 L 467 535 L 467 536 L 466 537 L 466 538 L 464 540 L 464 541 L 462 543 L 462 544 L 459 547 L 459 548 L 458 549 L 458 550 L 455 553 L 455 554 L 453 556 L 453 557 L 451 559 L 451 560 L 449 562 L 449 563 L 446 566 L 446 567 L 443 570 L 443 571 L 441 573 L 441 574 L 437 578 L 437 579 L 433 583 L 433 584 L 429 588 L 429 589 L 423 595 L 423 596 L 414 605 L 414 606 L 401 619 L 400 619 L 393 626 L 392 626 L 388 630 L 387 630 L 384 633 L 383 633 L 381 635 L 380 635 L 378 637 L 377 637 L 375 639 L 374 639 L 372 641 L 371 641 L 370 642 L 369 642 L 368 643 L 367 643 L 366 644 L 365 644 L 364 645 L 363 645 L 362 646 L 361 646 L 360 647 L 358 647 L 357 648 L 355 648 L 354 649 L 352 649 L 351 650 L 348 650 L 347 651 L 341 651 L 340 652 L 335 652 L 334 651 L 329 651 L 328 650 L 325 650 L 324 649 L 323 649 L 322 648 L 320 648 L 318 646 L 317 646 L 309 638 L 309 637 L 307 635 L 307 634 L 306 633 L 306 632 L 305 631 L 305 629 L 304 628 L 304 622 L 303 621 L 303 616 L 304 615 L 304 610 L 305 609 L 305 607 L 306 606 L 306 604 L 307 603 L 307 600 L 306 599 L 306 598 L 305 597 L 303 597 L 302 596 L 301 596 L 300 597 L 298 597 L 297 598 L 296 598 L 288 606 L 288 607 L 286 609 L 286 610 L 285 611 L 285 612 L 283 614 L 283 616 L 282 617 L 282 618 L 281 619 L 281 621 L 280 622 L 280 624 L 279 625 L 279 627 L 278 628 L 278 633 L 277 634 L 277 648 L 278 649 L 278 652 L 279 653 L 279 656 L 280 657 L 280 658 L 281 659 L 281 661 L 282 662 L 282 663 L 283 664 L 283 665 L 285 667 L 285 668 L 295 678 L 296 678 L 298 680 L 299 680 L 300 681 L 301 681 L 302 682 L 303 682 L 304 683 L 305 683 L 306 684 L 307 684 L 308 685 L 310 685 L 311 686 L 313 686 L 314 687 L 317 687 L 318 688 L 323 688 L 324 689 L 347 689 L 348 688 L 354 688 L 355 687 L 359 687 L 360 686 L 363 686 L 364 685 L 366 685 L 367 684 L 369 684 L 370 683 L 372 683 L 373 682 L 375 682 L 376 681 L 378 681 L 379 680 L 380 680 L 381 679 L 383 679 L 384 678 L 385 678 L 386 677 L 387 677 L 388 676 L 389 676 L 390 675 L 391 675 L 392 674 L 393 674 L 394 673 L 395 673 L 396 672 L 397 672 L 398 671 L 399 671 L 400 670 L 401 670 L 402 669 L 403 669 L 405 667 L 406 667 L 407 666 L 408 666 L 410 664 L 411 664 L 413 662 L 414 662 L 416 660 L 417 660 L 419 658 L 420 658 L 422 656 L 423 656 L 426 653 L 427 653 L 431 649 L 432 649 L 435 646 L 436 646 L 443 639 L 444 639 L 470 613 L 470 612 L 475 607 L 475 606 L 480 601 L 480 600 L 485 595 L 485 594 L 489 590 L 489 589 L 492 586 L 492 585 L 495 582 L 495 581 L 497 579 L 497 578 L 500 575 L 500 574 L 503 571 L 503 570 L 505 568 L 505 567 L 507 565 L 507 564 L 509 562 L 509 561 L 512 558 L 512 557 L 513 556 L 513 555 L 515 553 L 515 552 L 517 550 L 517 549 L 519 547 L 519 546 L 521 544 L 521 543 L 522 542 L 522 541 L 524 539 L 524 538 L 525 537 L 525 536 L 527 534 L 527 533 L 528 532 L 528 531 L 530 529 L 530 528 L 531 527 L 531 526 L 533 524 L 533 523 L 534 522 L 534 521 L 535 520 L 535 519 L 537 517 L 537 516 L 538 515 L 538 514 L 539 513 L 539 512 L 540 511 L 540 510 L 542 508 L 542 507 L 543 506 L 543 505 L 544 504 L 544 503 L 545 502 L 545 501 L 546 500 L 546 499 L 547 498 L 547 497 L 548 496 L 548 495 L 550 493 L 550 492 L 551 491 L 551 490 L 552 489 L 552 488 L 553 487 L 553 486 L 554 485 L 554 484 L 555 483 L 555 482 L 556 481 L 556 480 L 557 479 L 557 478 L 558 477 L 558 476 L 559 475 L 559 474 L 560 473 L 560 472 L 561 471 L 561 470 L 562 469 L 562 468 L 563 467 L 563 466 L 564 465 L 564 464 L 565 463 L 565 462 L 566 461 L 566 460 L 567 459 L 567 458 L 568 457 L 568 456 L 569 455 L 569 454 L 570 453 L 570 452 L 571 451 L 571 450 L 572 449 L 572 448 L 573 447 L 573 446 L 574 445 L 574 444 L 575 443 L 575 442 L 576 441 L 576 439 L 577 438 L 577 437 L 578 436 L 578 435 L 579 434 L 579 433 L 580 432 L 580 431 L 581 430 L 581 429 L 582 428 L 582 427 L 583 426 L 583 425 L 584 424 L 585 424 L 586 423 L 593 423 L 594 422 L 600 422 L 601 421 L 607 421 L 608 420 L 615 420 L 616 419 L 621 419 L 622 418 L 625 418 L 626 419 L 626 420 L 624 422 L 624 423 L 622 425 L 622 426 L 621 427 L 621 428 L 620 429 L 620 430 L 619 431 L 619 432 L 618 433 L 618 434 L 617 435 L 617 436 L 616 437 L 616 438 L 615 439 L 615 440 L 614 441 L 614 442 L 613 443 L 613 445 L 612 446 L 612 449 L 611 450 L 611 453 L 610 454 L 610 466 L 611 467 L 611 468 L 613 470 L 614 470 L 615 471 L 620 471 L 621 470 L 622 470 L 624 468 L 624 467 L 625 466 L 625 465 L 626 464 L 626 462 L 627 461 L 627 460 L 628 459 L 628 458 L 629 457 L 629 456 L 630 455 L 630 454 L 631 453 L 631 452 L 632 451 L 632 450 L 633 449 L 633 448 L 635 446 L 635 445 L 637 443 L 637 442 L 639 440 L 639 439 L 641 437 L 641 436 L 644 433 L 644 432 L 648 428 L 648 427 L 670 405 L 671 405 L 675 401 L 676 401 L 679 398 L 680 398 L 682 396 L 683 396 L 684 395 L 684 394 L 685 393 L 685 388 L 684 387 L 684 386 L 682 386 L 681 385 L 680 385 L 679 386 L 674 386 L 673 387 L 667 387 L 666 388 L 660 388 L 659 389 L 652 389 L 651 390 L 644 390 L 643 391 L 637 391 L 636 392 L 629 392 L 628 393 L 622 393 L 621 394 L 613 394 L 612 395 L 606 395 L 605 396 L 599 396 L 598 395 L 598 394 L 599 393 L 599 392 L 600 391 L 600 390 L 601 389 L 601 388 L 602 387 L 602 386 L 603 385 L 603 384 L 605 382 L 605 381 L 606 380 L 606 379 L 607 378 L 607 377 L 608 376 L 608 375 L 609 374 L 609 373 L 611 371 L 611 370 L 612 369 L 612 368 L 613 367 L 613 366 L 614 365 L 614 364 L 616 362 L 616 361 L 617 360 L 617 359 L 618 358 L 618 357 L 619 356 L 619 355 L 621 353 L 621 352 L 622 351 L 622 350 L 624 348 L 624 347 L 625 346 L 625 345 L 627 343 L 627 342 L 628 341 L 628 340 L 630 338 L 630 337 L 632 335 L 632 334 L 633 333 L 633 332 L 635 330 L 635 329 L 637 327 L 637 326 L 639 324 L 639 323 L 641 321 L 641 320 L 643 318 L 643 317 L 646 314 L 646 313 L 648 311 L 648 310 L 651 307 L 651 306 L 655 302 L 655 301 L 660 296 L 660 295 L 680 275 L 681 275 L 686 270 L 687 270 L 690 267 L 691 267 L 694 264 L 695 264 L 697 262 L 698 262 L 699 261 L 700 261 L 702 259 L 703 259 L 704 258 L 705 258 L 706 257 L 710 257 L 711 258 L 714 258 L 715 259 L 717 259 L 718 260 L 721 260 L 722 261 L 724 261 L 725 262 L 727 262 L 728 263 L 731 263 L 732 264 L 735 264 L 736 265 L 739 265 L 740 266 L 745 266 L 746 267 L 751 267 L 752 268 L 758 268 L 759 269 L 790 269 L 791 268 L 797 268 L 798 267 L 801 267 L 802 266 L 806 266 L 807 265 L 809 265 L 810 264 L 812 264 L 813 263 L 814 263 L 815 262 L 817 262 L 818 261 L 819 261 L 820 260 L 821 260 L 822 259 L 823 259 L 824 258 L 825 258 L 826 257 L 827 257 L 829 255 L 830 255 L 832 253 L 833 253 L 838 248 L 839 248 L 841 246 L 841 245 L 846 240 L 846 239 L 848 237 L 848 236 L 849 235 L 849 234 L 850 233 L 850 232 L 851 231 L 851 230 L 852 229 L 852 227 L 853 226 L 853 225 L 854 224 L 854 221 L 855 220 L 855 217 L 856 216 L 856 204 L 855 203 L 855 201 L 852 198 L 847 198 L 846 199 L 845 199 L 844 200 L 844 201 L 834 211 L 833 211 L 832 212 L 831 212 L 829 214 L 828 214 L 827 215 L 826 215 L 825 216 L 824 216 L 823 217 L 821 217 L 820 218 L 818 218 L 817 219 L 814 219 L 813 220 L 810 220 L 809 221 L 805 221 L 804 222 L 797 222 L 796 223 L 757 223 L 756 222 L 747 222 L 746 221 L 738 221 L 737 220 L 731 220 L 730 219 L 723 219 L 722 218 L 717 218 L 716 217 L 711 217 L 710 216 L 706 216 L 705 215 L 700 215 L 699 214 L 694 214 L 693 213 L 689 213 L 688 212 L 683 212 L 682 211 L 678 211 L 677 210 L 673 210 L 672 209 L 667 209 L 666 208 L 662 208 L 661 207 L 657 207 L 656 206 L 651 206 L 650 205 L 645 205 L 644 204 L 640 204 L 639 203 L 634 203 L 633 202 L 628 202 L 627 201 L 622 201 L 621 200 L 615 200 L 614 199 L 608 199 L 607 198 L 600 198 L 599 197 L 591 197 L 590 196 L 580 196 L 579 195 L 564 195 L 563 194 Z M 1372 193 L 1371 194 L 1365 194 L 1364 195 L 1361 195 L 1360 196 L 1358 196 L 1357 197 L 1356 197 L 1355 198 L 1354 198 L 1352 200 L 1351 200 L 1348 203 L 1348 204 L 1346 206 L 1346 207 L 1345 208 L 1345 209 L 1344 210 L 1344 211 L 1343 212 L 1343 213 L 1342 214 L 1342 216 L 1341 217 L 1341 218 L 1340 219 L 1340 220 L 1339 221 L 1339 222 L 1338 223 L 1338 225 L 1337 226 L 1337 227 L 1336 228 L 1336 229 L 1335 230 L 1335 232 L 1334 233 L 1334 234 L 1333 235 L 1333 237 L 1332 238 L 1332 239 L 1331 240 L 1331 241 L 1330 242 L 1330 244 L 1329 245 L 1329 246 L 1328 247 L 1328 248 L 1327 249 L 1327 251 L 1326 252 L 1326 253 L 1325 254 L 1325 256 L 1324 257 L 1324 258 L 1323 259 L 1323 260 L 1322 261 L 1322 263 L 1321 264 L 1321 265 L 1320 266 L 1320 267 L 1319 268 L 1319 270 L 1318 271 L 1318 272 L 1317 273 L 1317 275 L 1316 276 L 1316 277 L 1315 278 L 1315 279 L 1314 280 L 1314 282 L 1313 283 L 1313 284 L 1312 285 L 1312 287 L 1311 288 L 1311 289 L 1310 290 L 1310 292 L 1309 293 L 1309 294 L 1308 295 L 1308 297 L 1307 298 L 1307 299 L 1306 300 L 1306 302 L 1305 303 L 1305 304 L 1304 305 L 1304 307 L 1303 308 L 1303 309 L 1302 310 L 1302 312 L 1301 313 L 1301 314 L 1300 315 L 1300 316 L 1299 317 L 1299 319 L 1298 320 L 1298 321 L 1297 322 L 1297 324 L 1296 325 L 1296 326 L 1295 327 L 1295 329 L 1294 330 L 1294 332 L 1293 333 L 1293 334 L 1292 335 L 1292 337 L 1291 338 L 1291 339 L 1290 340 L 1290 341 L 1289 342 L 1289 344 L 1288 345 L 1288 346 L 1287 347 L 1287 349 L 1286 350 L 1286 351 L 1285 352 L 1285 354 L 1284 355 L 1284 356 L 1283 357 L 1283 359 L 1282 360 L 1282 362 L 1281 363 L 1281 364 L 1280 365 L 1280 367 L 1279 368 L 1279 369 L 1278 370 L 1278 372 L 1277 373 L 1277 374 L 1276 375 L 1276 377 L 1275 378 L 1275 380 L 1274 381 L 1274 382 L 1273 383 L 1273 385 L 1272 386 L 1272 387 L 1271 388 L 1271 390 L 1270 391 L 1270 392 L 1269 393 L 1269 395 L 1268 396 L 1268 398 L 1267 399 L 1267 400 L 1266 401 L 1266 403 L 1265 404 L 1265 405 L 1264 406 L 1264 408 L 1263 409 L 1263 411 L 1262 412 L 1262 415 L 1261 416 L 1261 419 L 1262 420 L 1262 422 L 1265 425 L 1266 425 L 1267 426 L 1274 426 L 1275 425 L 1277 425 L 1281 421 L 1281 420 L 1283 418 L 1283 417 L 1284 416 L 1284 415 L 1286 413 L 1286 412 L 1287 411 L 1287 410 L 1288 409 L 1288 408 L 1290 406 L 1290 405 L 1291 404 L 1291 403 L 1293 401 L 1293 400 L 1294 399 L 1294 398 L 1295 397 L 1295 396 L 1297 394 L 1297 393 L 1298 392 L 1298 391 L 1300 389 L 1300 388 L 1301 387 L 1301 386 L 1302 385 L 1302 384 L 1304 382 L 1304 381 L 1305 380 L 1305 379 L 1307 377 L 1307 376 L 1308 375 L 1308 374 L 1309 373 L 1309 372 L 1311 370 L 1311 369 L 1312 368 L 1312 367 L 1314 365 L 1314 364 L 1315 363 L 1315 362 L 1317 360 L 1317 359 L 1318 358 L 1318 357 L 1320 355 L 1320 354 L 1321 353 L 1321 352 L 1323 350 L 1323 349 L 1324 348 L 1324 347 L 1325 346 L 1325 345 L 1327 343 L 1327 342 L 1328 341 L 1328 340 L 1330 338 L 1330 337 L 1331 336 L 1331 335 L 1332 334 L 1332 333 L 1333 332 L 1333 331 L 1335 329 L 1335 328 L 1336 327 L 1336 326 L 1338 324 L 1338 323 L 1339 322 L 1339 321 L 1341 319 L 1341 318 L 1342 317 L 1342 316 L 1344 314 L 1344 313 L 1345 312 L 1345 311 L 1346 310 L 1346 309 L 1347 308 L 1347 307 L 1349 305 L 1349 304 L 1350 303 L 1350 302 L 1352 300 L 1352 299 L 1353 298 L 1353 297 L 1355 295 L 1355 294 L 1356 293 L 1356 292 L 1357 291 L 1357 290 L 1359 288 L 1359 287 L 1360 286 L 1360 285 L 1361 284 L 1361 283 L 1363 281 L 1363 280 L 1364 279 L 1364 278 L 1365 277 L 1365 276 L 1367 274 L 1367 273 L 1368 272 L 1368 271 L 1370 269 L 1370 268 L 1371 267 L 1371 266 L 1372 265 L 1372 264 L 1374 262 L 1374 261 L 1375 260 L 1375 259 L 1376 258 L 1376 257 L 1378 255 L 1378 254 L 1379 253 L 1379 252 L 1380 251 L 1380 250 L 1382 248 L 1382 247 L 1383 246 L 1383 245 L 1384 244 L 1384 243 L 1386 241 L 1386 240 L 1387 239 L 1387 238 L 1389 236 L 1389 235 L 1390 234 L 1390 233 L 1391 232 L 1391 231 L 1392 230 L 1392 229 L 1394 227 L 1394 226 L 1395 225 L 1395 224 L 1396 223 L 1396 222 L 1397 221 L 1397 220 L 1398 219 L 1398 218 L 1399 217 L 1399 216 L 1400 215 L 1400 213 L 1401 212 L 1401 206 L 1400 205 L 1400 203 L 1394 197 L 1393 197 L 1392 196 L 1390 196 L 1389 195 L 1387 195 L 1386 194 L 1381 194 L 1380 193 Z" fill="#164D2A" fill-rule="evenodd" clip-rule="evenodd"/>
</svg>
